<svg width="168" height="512" viewBox="0 0 168 512" fill="none" xmlns="http://www.w3.org/2000/svg">
<path fill-rule="evenodd" clip-rule="evenodd" d="M91.3958 23.6529C91.3524 23.9311 91.2466 24.1959 91.0863 24.4275C90.926 24.659 90.7154 24.8512 90.4703 24.9898C89.9766 25.3086 89.5447 25.468 89.1077 25.6274C88.177 25.9488 87.1974 26.2702 86.1613 26.643C85.0687 27.0157 84.0891 27.3885 83.215 27.6585C82.1249 28.0313 81.0888 28.3526 80.1041 28.7254C79.3633 29.0425 78.6674 29.4556 78.0345 29.9544C77.4458 30.4877 76.9321 31.0983 76.5073 31.7695C76.0703 32.515 75.7952 33.4766 75.7952 34.5975C75.7952 36.842 76.3402 38.5491 77.4329 39.6161C78.523 40.7396 80.5438 41.2718 83.5389 41.2718C86.5933 41.2718 88.6655 40.6856 89.7607 39.5107C90.8482 38.3357 91.3932 36.6826 91.3932 34.5487V23.6529H91.3958ZM83.5415 0C88.8891 0 92.815 1.01553 95.3217 3.09802C97.831 5.12908 99.0856 7.74119 99.0856 10.8366V37.2148C99.0856 38.2817 98.8696 39.4567 98.4891 40.737C98.1035 42.0225 97.3425 43.1949 96.1418 44.2592C94.9977 45.3313 93.4166 46.2389 91.3984 46.933C89.3802 47.6272 86.7629 48 83.5441 48C80.3304 48 77.708 47.6272 75.6923 46.933C73.6767 46.2389 72.093 45.3313 70.9489 44.2592C69.8846 43.3001 69.0783 42.089 68.6042 40.737C68.2185 39.4592 68 38.2843 68 37.2174V33.001C68 30.7565 68.599 28.674 69.7997 26.8563C71.0003 24.9898 72.6894 23.7095 74.8722 22.9073C75.9623 22.5345 77.2169 22.1618 78.6335 21.681C80.0527 21.1976 81.3588 20.7169 82.6699 20.2927C83.9811 19.8633 85.1252 19.434 86.1048 19.0586C86.6959 18.8221 87.2963 18.6094 87.9044 18.421L88.8866 17.9402C89.2722 17.7268 89.6501 17.4055 90.0332 16.9787C90.4137 16.5545 90.7402 16.0737 91.0153 15.5389C91.306 14.9599 91.4557 14.3203 91.4524 13.6724V11.9627C91.4564 11.3361 91.3249 10.716 91.0667 10.145C90.8508 9.5023 90.4137 8.91612 89.8147 8.38393C89.2156 7.84917 88.3955 7.42239 87.416 7.09845C86.4338 6.78222 85.1278 6.62025 83.6521 6.62025C80.5977 6.62025 78.5795 7.21157 77.4894 8.43535C76.5639 9.50488 76.0189 10.8392 75.9109 12.3329C75.9109 12.6543 75.6383 12.8677 75.3093 12.8677L68.6582 12.9757C68.5002 12.9764 68.3483 12.9146 68.2356 12.8039C68.123 12.6931 68.0586 12.5423 68.0566 12.3844V10.8418C68.0566 9.3429 68.3317 7.95458 68.9307 6.62025C69.5323 5.28334 70.4604 4.16497 71.7125 3.20086C72.9671 2.24189 74.6048 1.44231 76.5665 0.907552C78.4767 0.26481 80.8214 0 83.5466 0H83.5415Z" fill="#0A3871"/>
<g filter="url(#filter0_d_49_476)">
<rect x="24" y="88" width="120" height="176" rx="60" fill="white" fill-opacity="0.24" shape-rendering="crispEdges"/>
<rect x="48" y="112" width="72" height="128" rx="36" fill="white"/>
<circle cx="84" cy="148" r="20" fill="#0A3871"/>
<path d="M89.25 156.25V147.25H85.5V145.75H94.5V147.25H90.75V156.25H89.25Z" fill="white"/>
<path d="M80.25 156.25V142H73.5V140.5H88.5V142H81.75V156.25H80.25Z" fill="white"/>
<path d="M85 193C80.4 193 76.6 196.4 76.1 200.9L74.5 203C74 203.8 73.9 204.8 74.3 205.6C74.7 206.3 75.3 206.8 76 206.9V208C76 209.8 77.3 211.4 79 211.9V215H90V209.5C92.5 207.8 94 205.1 94 202C94 197 90 193 85 193ZM88 208.3V213H81V210H80C78.9 210 78 209.1 78 208V205H76.5C76.1 205 75.8 204.5 76.1 204.2L78 201.7C78.2 198 81.2 195 85 195C88.9 195 92 198.1 92 202C92 204.8 90.4 207.2 88 208.3Z" fill="#0A3871"/>
</g>
<g filter="url(#filter1_d_49_476)">
<rect x="24" y="304" width="120" height="176" rx="60" fill="white" fill-opacity="0.24" shape-rendering="crispEdges"/>
<rect x="48" y="328" width="72" height="128" rx="36" fill="white"/>
<circle cx="84" cy="364" r="20" fill="#0A3871"/>
<path d="M75.6982 370V358.364H79.63C80.5429 358.364 81.2891 358.528 81.8686 358.858C82.4519 359.184 82.8838 359.625 83.1641 360.182C83.4444 360.739 83.5845 361.36 83.5845 362.045C83.5845 362.731 83.4444 363.354 83.1641 363.915C82.8875 364.475 82.4595 364.922 81.88 365.256C81.3004 365.585 80.558 365.75 79.6527 365.75H76.8345V364.5H79.6072C80.2322 364.5 80.7341 364.392 81.1129 364.176C81.4917 363.96 81.7663 363.669 81.9368 363.301C82.111 362.93 82.1982 362.511 82.1982 362.045C82.1982 361.58 82.111 361.163 81.9368 360.795C81.7663 360.428 81.4898 360.14 81.1072 359.932C80.7247 359.72 80.2171 359.614 79.5845 359.614H77.1072V370H75.6982ZM85.218 359.614V358.364H93.9453V359.614H90.2862V370H88.8771V359.614H85.218Z" fill="white"/>
<path d="M75.5263 426V414.364H82.549V415.614H76.9354V419.545H82.1854V420.795H76.9354V424.75H82.6399V426H75.5263ZM91.4524 417.273C91.3842 416.697 91.1077 416.25 90.6229 415.932C90.138 415.614 89.5433 415.455 88.8388 415.455C88.3236 415.455 87.8729 415.538 87.4865 415.705C87.1039 415.871 86.8047 416.1 86.5888 416.392C86.3767 416.684 86.2706 417.015 86.2706 417.386C86.2706 417.697 86.3445 417.964 86.4922 418.188C86.6437 418.407 86.8369 418.591 87.0717 418.739C87.3066 418.883 87.5528 419.002 87.8104 419.097C88.0679 419.187 88.3047 419.261 88.5206 419.318L89.7024 419.636C90.0054 419.716 90.3426 419.826 90.7138 419.966C91.0888 420.106 91.4467 420.297 91.7876 420.54C92.1323 420.778 92.4164 421.085 92.6399 421.46C92.8634 421.835 92.9751 422.295 92.9751 422.841C92.9751 423.47 92.8104 424.038 92.4808 424.545C92.1551 425.053 91.6778 425.456 91.049 425.756C90.424 426.055 89.6645 426.205 88.7706 426.205C87.9373 426.205 87.2157 426.07 86.6058 425.801C85.9998 425.532 85.5225 425.157 85.174 424.676C84.8293 424.195 84.6342 423.636 84.5888 423H86.0433C86.0812 423.439 86.2289 423.803 86.4865 424.091C86.7479 424.375 87.0774 424.587 87.4751 424.727C87.8767 424.864 88.3085 424.932 88.7706 424.932C89.3085 424.932 89.7914 424.845 90.2195 424.67C90.6475 424.492 90.9865 424.246 91.2365 423.932C91.4865 423.614 91.6115 423.242 91.6115 422.818C91.6115 422.432 91.5036 422.117 91.2876 421.875C91.0717 421.633 90.7876 421.436 90.4354 421.284C90.0831 421.133 89.7024 421 89.2933 420.886L87.8615 420.477C86.9524 420.216 86.2327 419.843 85.7024 419.358C85.1721 418.873 84.907 418.239 84.907 417.455C84.907 416.803 85.0831 416.235 85.4354 415.75C85.7914 415.261 86.2687 414.883 86.8672 414.614C87.4695 414.341 88.1418 414.205 88.8842 414.205C89.6342 414.205 90.3009 414.339 90.8842 414.608C91.4676 414.873 91.9297 415.237 92.2706 415.699C92.6153 416.161 92.7971 416.686 92.8161 417.273H91.4524Z" fill="#0A3871"/>
</g>
<defs>
<filter id="filter0_d_49_476" x="0" y="72" width="168" height="224" filterUnits="userSpaceOnUse" color-interpolation-filters="sRGB">
<feFlood flood-opacity="0" result="BackgroundImageFix"/>
<feColorMatrix in="SourceAlpha" type="matrix" values="0 0 0 0 0 0 0 0 0 0 0 0 0 0 0 0 0 0 127 0" result="hardAlpha"/>
<feOffset dy="8"/>
<feGaussianBlur stdDeviation="12"/>
<feComposite in2="hardAlpha" operator="out"/>
<feColorMatrix type="matrix" values="0 0 0 0 0 0 0 0 0 0 0 0 0 0 0 0 0 0 0.04 0"/>
<feBlend mode="normal" in2="BackgroundImageFix" result="effect1_dropShadow_49_476"/>
<feBlend mode="normal" in="SourceGraphic" in2="effect1_dropShadow_49_476" result="shape"/>
</filter>
<filter id="filter1_d_49_476" x="0" y="288" width="168" height="224" filterUnits="userSpaceOnUse" color-interpolation-filters="sRGB">
<feFlood flood-opacity="0" result="BackgroundImageFix"/>
<feColorMatrix in="SourceAlpha" type="matrix" values="0 0 0 0 0 0 0 0 0 0 0 0 0 0 0 0 0 0 127 0" result="hardAlpha"/>
<feOffset dy="8"/>
<feGaussianBlur stdDeviation="12"/>
<feComposite in2="hardAlpha" operator="out"/>
<feColorMatrix type="matrix" values="0 0 0 0 0 0 0 0 0 0 0 0 0 0 0 0 0 0 0.04 0"/>
<feBlend mode="normal" in2="BackgroundImageFix" result="effect1_dropShadow_49_476"/>
<feBlend mode="normal" in="SourceGraphic" in2="effect1_dropShadow_49_476" result="shape"/>
</filter>
</defs>
</svg>
